<svg width="105" height="20" viewBox="0 0 105 20" fill="none" xmlns="http://www.w3.org/2000/svg">
<path d="M0.339976 18.7721L0.339309 1.22439L5.14024 0.499633L7.92032 0.49981L7.92012 3.56487L3.48286 3.56458L3.48254 8.50733L7.91995 6.27095L7.91973 9.69498L3.48232 11.959L3.48232 19.396L0.339976 18.7721Z" fill="white"/>
<path d="M9.49132 3.12315C9.49143 1.43876 10.4286 0.499969 12.0271 0.50007L15.5273 0.500292C17.1258 0.500394 18.0904 1.4393 18.0902 3.1237L18.0902 3.59312L14.9206 5.24971L14.9207 3.5377L12.6332 3.53755L12.6329 8.36985L18.0901 5.55365L18.0894 17.0407C18.0893 18.7251 17.1246 19.6639 15.5261 19.6638L12.0259 19.6636C10.4273 19.6635 9.49033 18.7246 9.49044 17.0402L9.49055 15.2453L12.6326 13.6163L12.6324 16.6262L14.9199 16.6263L14.9203 10.6067L9.49067 13.4505L9.49132 3.12315Z" fill="white"/>
<path d="M28.9095 0.501142L28.9085 16.5996L31.196 16.5997L31.197 0.501287L34.3665 0.501488L34.3654 16.9865C34.3653 18.809 33.4833 19.6649 31.6092 19.6648L29.1563 19.6647C28.0263 19.6646 27.3649 19.0018 27.365 17.8145C27.3649 19.0018 26.6759 19.6645 25.5459 19.6644L22.9 19.6643C21.3015 19.6642 20.3645 18.7253 20.3646 17.0409L20.3657 0.5006L23.5076 0.500799L23.5066 16.5992L25.8217 16.5994L25.8227 0.500946L28.9095 0.501142Z" fill="white"/>
<path d="M47.6796 7.32277L47.6798 3.45694L45.1442 3.45678L45.1439 8.5652L47.6796 7.32277ZM50.7111 9.47679L50.7106 17.0152C50.7105 18.81 49.801 19.666 47.8993 19.6659L42.1115 19.6655L42.1128 0.50198L48.1485 0.502363C49.7471 0.502464 50.7116 1.44137 50.7115 3.12577L50.7113 7.15729C50.7112 8.39988 50.3253 9.14541 49.3607 9.4767L50.7111 9.47679ZM47.679 16.6836L47.6794 10.5259L45.1437 11.7959L45.1434 16.6835L47.679 16.6836Z" fill="white"/>
<path d="M61.584 19.6667L58.4421 19.6665L58.4426 11.5483L56.1274 12.7355L56.127 19.6664L52.9851 19.6662L52.9861 3.12592C52.9862 1.44152 53.9234 0.502729 55.5219 0.502831L59.0221 0.503053C60.6206 0.503154 61.5852 1.44206 61.5851 3.12646L61.584 19.6667ZM58.4428 8.17946L58.4431 3.54046L56.128 3.54031L56.1277 9.31145L58.4428 8.17946Z" fill="white"/>
<path d="M69.3702 8.23538L69.3705 3.54115L67.0554 3.541L67.055 9.39499L69.3702 8.23538ZM72.512 10.0028L70.1968 11.19L73.7792 19.6675L70.4995 19.6673L67.5234 12.5705L67.0548 12.819L67.0544 19.6671L63.9125 19.6669L63.9137 0.503363L69.9495 0.503746C71.548 0.503848 72.5125 1.44275 72.5124 3.12715L72.512 10.0028Z" fill="white"/>
<path d="M80.3271 7.32484L80.3274 3.45901L77.7918 3.45885L77.7915 8.56728L80.3271 7.32484ZM83.3587 9.47886L83.3582 17.0172C83.3581 18.8121 82.4485 19.668 80.5468 19.6679L74.7591 19.6676L74.7603 0.504052L80.7961 0.504435C82.3946 0.504536 83.3592 1.44344 83.3591 3.12784L83.3588 7.15936C83.3587 8.40195 82.9728 9.14748 82.0082 9.47878L83.3587 9.47886ZM80.3265 16.6857L80.3269 10.528L77.7913 11.798L77.7909 16.6855L80.3265 16.6857Z" fill="white"/>
<path d="M93.2118 19.6687L85.6326 19.6682L85.6339 0.504742L93.213 0.505223L93.2128 3.57028L88.7756 3.57L88.7753 8.51275L93.2127 6.27636L93.2124 9.70039L88.775 11.9644L88.7747 16.6034L93.212 16.6037L93.2118 19.6687Z" fill="white"/>
<path d="M100.591 8.23736L100.592 3.54313L98.2765 3.54299L98.2761 9.39697L100.591 8.23736ZM103.733 10.0048L101.418 11.192L105 19.6695L101.721 19.6693L98.7444 12.5725L98.2759 12.821L98.2754 19.669L95.1335 19.6688L95.1347 0.505345L101.171 0.505728C102.769 0.505829 103.734 1.44474 103.733 3.12914L103.733 10.0048Z" fill="white"/>
<path d="M0.339976 18.7721L0.339309 1.22439L5.14024 0.499633L7.92032 0.49981L7.92012 3.56487L3.48286 3.56458L3.48254 8.50733L7.91995 6.27095L7.91973 9.69498L3.48232 11.959L3.48232 19.396L0.339976 18.7721Z" fill="#8162FF"/>
<path d="M9.49132 3.12315C9.49143 1.43876 10.4286 0.499969 12.0271 0.50007L15.5273 0.500292C17.1258 0.500394 18.0904 1.4393 18.0902 3.1237L18.0902 3.59312L14.9206 5.24971L14.9207 3.5377L12.6332 3.53755L12.6329 8.36985L18.0901 5.55365L18.0894 17.0407C18.0893 18.7251 17.1246 19.6639 15.5261 19.6638L12.0259 19.6636C10.4273 19.6635 9.49033 18.7246 9.49044 17.0402L9.49055 15.2453L12.6326 13.6163L12.6324 16.6262L14.9199 16.6263L14.9203 10.6067L9.49067 13.4505L9.49132 3.12315Z" fill="#8162FF"/>
<path d="M28.9095 0.501142L28.9085 16.5996L31.196 16.5997L31.197 0.501287L34.3665 0.501488L34.3654 16.9865C34.3653 18.809 33.4833 19.6649 31.6092 19.6648L29.1563 19.6647C28.0263 19.6646 27.3649 19.0018 27.365 17.8145C27.3649 19.0018 26.6759 19.6645 25.5459 19.6644L22.9 19.6643C21.3015 19.6642 20.3645 18.7253 20.3646 17.0409L20.3657 0.5006L23.5076 0.500799L23.5066 16.5992L25.8217 16.5994L25.8227 0.500946L28.9095 0.501142Z" fill="#8162FF"/>
</svg>
